name C:/MyDriveSym/Projects/mobilecap/Data\Session20210819_0002\mocap\ForceDataProcessed\walkingTS2_forces.mot
datacolumns 19
datarows 17
range 1.05700000 1.06500000
endheader 
time	R_ground_force_vx	R_ground_force_vy	R_ground_force_vz	R_ground_force_px	R_ground_force_py	R_ground_force_pz	R_ground_torque_x	R_ground_torque_y	R_ground_torque_z	L_ground_force_vx	L_ground_force_vy	L_ground_force_vz	L_ground_force_px	L_ground_force_py	L_ground_force_pz	L_ground_torque_x	L_ground_torque_y	L_ground_torque_z	
          1.05700000	          0.00000000	          0.00000000	          0.00000000	          1.19962400	          0.00000000	         -0.20024500	          0.00000000	          0.00000000	          0.00000000	         37.05921400	        549.06986800	         18.16974100	          0.94842300	          0.00600000	         -0.30968300	          0.00000000	          4.86929900	          0.00000000	
          1.05750000	          0.00000000	          0.00000000	          0.00000000	          1.20103600	          0.00000000	         -0.20033200	          0.00000000	          0.00000000	          0.00000000	         37.44494200	        549.70241800	         18.22406100	          0.94849800	          0.00600000	         -0.30967900	          0.00000000	          4.87086100	          0.00000000	
          1.05800000	          0.00000000	          0.00000000	          0.00000000	          1.20244800	          0.00000000	         -0.20042000	          0.00000000	          0.00000000	          0.00000000	         37.83193900	        550.33708400	         18.27839300	          0.94857300	          0.00600000	         -0.30967500	          0.00000000	          4.87232500	          0.00000000	
          1.05850000	          0.00000000	          0.00000000	          0.00000000	          1.20385900	          0.00000000	         -0.20050700	          0.00000000	          0.00000000	          0.00000000	         38.22019600	        550.97378600	         18.33273400	          0.94864800	          0.00600000	         -0.30967100	          0.00000000	          4.87368800	          0.00000000	
          1.05900000	          0.00000000	          0.00000000	          0.00000000	          1.20527100	          0.00000000	         -0.20059400	          0.00000000	          0.00000000	          0.00000000	         38.60970400	        551.61244800	         18.38708000	          0.94872300	          0.00600000	         -0.30966600	          0.00000000	          4.87495100	          0.00000000	
          1.05950000	          0.00000000	          0.00000000	          0.00000000	          1.20668300	          0.00000000	         -0.20068200	          0.00000000	          0.00000000	          0.00000000	         39.00045400	        552.25299000	         18.44142900	          0.94879700	          0.00600000	         -0.30966200	          0.00000000	          4.87611300	          0.00000000	
          1.06000000	          0.00000000	          0.00000000	          0.00000000	          1.20809500	          0.00000000	         -0.20076900	          0.00000000	          0.00000000	          0.00000000	         39.39243700	        552.89533500	         18.49577700	          0.94887200	          0.00600000	         -0.30965800	          0.00000000	          4.87717200	          0.00000000	
          1.06050000	          0.00000000	          0.00000000	          0.00000000	          1.20950600	          0.00000000	         -0.20085700	          0.00000000	          0.00000000	          0.00000000	         39.78564400	        553.53940100	         18.55011900	          0.94894600	          0.00600000	         -0.30965400	          0.00000000	          4.87812900	          0.00000000	
          1.06100000	          0.00000000	          0.00000000	          0.00000000	          1.21091800	          0.00000000	         -0.20094400	          0.00000000	          0.00000000	          0.00000000	         40.18006400	        554.18511000	         18.60445400	          0.94902000	          0.00600000	         -0.30965000	          0.00000000	          4.87898200	          0.00000000	
          1.06150000	          0.00000000	          0.00000000	          0.00000000	          1.21233000	          0.00000000	         -0.20103200	          0.00000000	          0.00000000	          0.00000000	         40.57568800	        554.83237900	         18.65877600	          0.94909400	          0.00600000	         -0.30964600	          0.00000000	          4.87973100	          0.00000000	
          1.06200000	          0.00000000	          0.00000000	          0.00000000	          1.21374200	          0.00000000	         -0.20111900	          0.00000000	          0.00000000	          0.00000000	         40.97250600	        555.48112700	         18.71308200	          0.94916800	          0.00600000	         -0.30964200	          0.00000000	          4.88037400	          0.00000000	
          1.06250000	          0.00000000	          0.00000000	          0.00000000	          1.21515300	          0.00000000	         -0.20120700	          0.00000000	          0.00000000	          0.00000000	         41.37050700	        556.13127300	         18.76736900	          0.94924100	          0.00600000	         -0.30963700	          0.00000000	          4.88091200	          0.00000000	
          1.06300000	          0.00000000	          0.00000000	          0.00000000	          1.21656500	          0.00000000	         -0.20129400	          0.00000000	          0.00000000	          0.00000000	         41.76968200	        556.78273200	         18.82163300	          0.94931500	          0.00600000	         -0.30963300	          0.00000000	          4.88134400	          0.00000000	
          1.06350000	          0.00000000	          0.00000000	          0.00000000	          1.21797700	          0.00000000	         -0.20138100	          0.00000000	          0.00000000	          0.00000000	         42.17001800	        557.43542300	         18.87586900	          0.94938800	          0.00600000	         -0.30962900	          0.00000000	          4.88166900	          0.00000000	
          1.06400000	          0.00000000	          0.00000000	          0.00000000	          1.21938900	          0.00000000	         -0.20146900	          0.00000000	          0.00000000	          0.00000000	         42.57150500	        558.08926100	         18.93007500	          0.94946100	          0.00600000	         -0.30962500	          0.00000000	          4.88188600	          0.00000000	
          1.06450000	          0.00000000	          0.00000000	          0.00000000	          1.22080000	          0.00000000	         -0.20155600	          0.00000000	          0.00000000	          0.00000000	         42.97413300	        558.74416200	         18.98424500	          0.94953400	          0.00600000	         -0.30962100	          0.00000000	          4.88199400	          0.00000000	
          1.06500000	          0.00000000	          0.00000000	          0.00000000	          1.22221200	          0.00000000	         -0.20164400	          0.00000000	          0.00000000	          0.00000000	         43.37788800	        559.40004100	         19.03837700	          0.94960700	          0.00600000	         -0.30961700	          0.00000000	          4.88199400	          0.00000000	
